<mxfile host="app.diagrams.net" agent="Mozilla/5.0 (Windows NT 10.0; Win64; x64) AppleWebKit/537.36 (KHTML, like Gecko) Chrome/127.0.0.0 Safari/537.36" version="24.7.6">
  <diagram name="Page-1" id="gBd0ADl2y5wC-AsBzWhR">
    <mxGraphModel dx="1114" dy="677" grid="1" gridSize="10" guides="1" tooltips="1" connect="1" arrows="1" fold="1" page="1" pageScale="1" pageWidth="850" pageHeight="1100" math="0" shadow="0">
      <root>
        <mxCell id="0" />
        <mxCell id="1" parent="0" />
        <mxCell id="1sM3eSAv-vAnu8K4cq6--12" value="nama_depan" style="ellipse;whiteSpace=wrap;html=1;align=center;" vertex="1" parent="1">
          <mxGeometry x="60" y="120" width="100" height="40" as="geometry" />
        </mxCell>
        <mxCell id="1sM3eSAv-vAnu8K4cq6--13" value="nama_depan" style="ellipse;whiteSpace=wrap;html=1;align=center;" vertex="1" parent="1">
          <mxGeometry x="170" y="70" width="100" height="40" as="geometry" />
        </mxCell>
        <mxCell id="1sM3eSAv-vAnu8K4cq6--15" value="nama_depan" style="ellipse;whiteSpace=wrap;html=1;align=center;" vertex="1" parent="1">
          <mxGeometry x="270" y="110" width="100" height="40" as="geometry" />
        </mxCell>
        <mxCell id="1sM3eSAv-vAnu8K4cq6--16" value="nama" style="ellipse;whiteSpace=wrap;html=1;align=center;" vertex="1" parent="1">
          <mxGeometry x="170" y="200" width="100" height="40" as="geometry" />
        </mxCell>
        <mxCell id="1sM3eSAv-vAnu8K4cq6--17" value="" style="endArrow=none;html=1;rounded=0;entryX=0.7;entryY=1;entryDx=0;entryDy=0;entryPerimeter=0;exitX=0;exitY=0;exitDx=0;exitDy=0;" edge="1" parent="1" source="1sM3eSAv-vAnu8K4cq6--16" target="1sM3eSAv-vAnu8K4cq6--12">
          <mxGeometry relative="1" as="geometry">
            <mxPoint x="203" y="206" as="sourcePoint" />
            <mxPoint x="280" y="290" as="targetPoint" />
            <Array as="points" />
          </mxGeometry>
        </mxCell>
        <mxCell id="1sM3eSAv-vAnu8K4cq6--19" value="" style="endArrow=none;html=1;rounded=0;entryX=0.5;entryY=1;entryDx=0;entryDy=0;exitX=0.5;exitY=0;exitDx=0;exitDy=0;" edge="1" parent="1" source="1sM3eSAv-vAnu8K4cq6--16" target="1sM3eSAv-vAnu8K4cq6--13">
          <mxGeometry relative="1" as="geometry">
            <mxPoint x="220" y="200" as="sourcePoint" />
            <mxPoint x="470" y="310" as="targetPoint" />
          </mxGeometry>
        </mxCell>
        <mxCell id="1sM3eSAv-vAnu8K4cq6--20" value="" style="endArrow=none;html=1;rounded=0;exitX=0.28;exitY=0.975;exitDx=0;exitDy=0;exitPerimeter=0;entryX=0.9;entryY=0.25;entryDx=0;entryDy=0;entryPerimeter=0;" edge="1" parent="1" source="1sM3eSAv-vAnu8K4cq6--15" target="1sM3eSAv-vAnu8K4cq6--16">
          <mxGeometry relative="1" as="geometry">
            <mxPoint x="290" y="270" as="sourcePoint" />
            <mxPoint x="380" y="270" as="targetPoint" />
          </mxGeometry>
        </mxCell>
        <mxCell id="1sM3eSAv-vAnu8K4cq6--21" value="Mahasiswa" style="whiteSpace=wrap;html=1;align=center;" vertex="1" parent="1">
          <mxGeometry x="170" y="280" width="100" height="40" as="geometry" />
        </mxCell>
        <mxCell id="1sM3eSAv-vAnu8K4cq6--22" value="" style="endArrow=none;html=1;rounded=0;exitX=0.5;exitY=1;exitDx=0;exitDy=0;entryX=0.5;entryY=0;entryDx=0;entryDy=0;" edge="1" parent="1" source="1sM3eSAv-vAnu8K4cq6--16" target="1sM3eSAv-vAnu8K4cq6--21">
          <mxGeometry relative="1" as="geometry">
            <mxPoint x="270" y="280" as="sourcePoint" />
            <mxPoint x="350" y="280" as="targetPoint" />
          </mxGeometry>
        </mxCell>
        <mxCell id="1sM3eSAv-vAnu8K4cq6--23" value="nim" style="ellipse;whiteSpace=wrap;html=1;align=center;fontStyle=4;" vertex="1" parent="1">
          <mxGeometry x="10" y="200" width="100" height="40" as="geometry" />
        </mxCell>
        <mxCell id="1sM3eSAv-vAnu8K4cq6--24" value="jurusan" style="ellipse;whiteSpace=wrap;html=1;align=center;" vertex="1" parent="1">
          <mxGeometry x="10" y="280" width="100" height="40" as="geometry" />
        </mxCell>
        <mxCell id="1sM3eSAv-vAnu8K4cq6--25" value="Alamat" style="ellipse;whiteSpace=wrap;html=1;align=center;" vertex="1" parent="1">
          <mxGeometry x="10" y="360" width="100" height="40" as="geometry" />
        </mxCell>
        <mxCell id="1sM3eSAv-vAnu8K4cq6--26" value="" style="endArrow=none;html=1;rounded=0;exitX=1;exitY=1;exitDx=0;exitDy=0;entryX=0;entryY=0;entryDx=0;entryDy=0;" edge="1" parent="1" source="1sM3eSAv-vAnu8K4cq6--23" target="1sM3eSAv-vAnu8K4cq6--21">
          <mxGeometry relative="1" as="geometry">
            <mxPoint x="270" y="280" as="sourcePoint" />
            <mxPoint x="350" y="280" as="targetPoint" />
          </mxGeometry>
        </mxCell>
        <mxCell id="1sM3eSAv-vAnu8K4cq6--27" value="" style="endArrow=none;html=1;rounded=0;exitX=1;exitY=0.5;exitDx=0;exitDy=0;entryX=0;entryY=0.5;entryDx=0;entryDy=0;" edge="1" parent="1" source="1sM3eSAv-vAnu8K4cq6--24" target="1sM3eSAv-vAnu8K4cq6--21">
          <mxGeometry relative="1" as="geometry">
            <mxPoint x="105" y="244" as="sourcePoint" />
            <mxPoint x="180" y="290" as="targetPoint" />
            <Array as="points" />
          </mxGeometry>
        </mxCell>
        <mxCell id="1sM3eSAv-vAnu8K4cq6--28" value="" style="endArrow=none;html=1;rounded=0;exitX=1;exitY=0.5;exitDx=0;exitDy=0;entryX=0;entryY=1;entryDx=0;entryDy=0;" edge="1" parent="1" source="1sM3eSAv-vAnu8K4cq6--25" target="1sM3eSAv-vAnu8K4cq6--21">
          <mxGeometry relative="1" as="geometry">
            <mxPoint x="115" y="254" as="sourcePoint" />
            <mxPoint x="190" y="300" as="targetPoint" />
          </mxGeometry>
        </mxCell>
        <mxCell id="1sM3eSAv-vAnu8K4cq6--29" value="mendaftar" style="shape=rhombus;perimeter=rhombusPerimeter;whiteSpace=wrap;html=1;align=center;" vertex="1" parent="1">
          <mxGeometry x="400" y="265" width="85" height="70" as="geometry" />
        </mxCell>
        <mxCell id="1sM3eSAv-vAnu8K4cq6--30" value="" style="endArrow=none;html=1;rounded=0;entryX=0;entryY=0.5;entryDx=0;entryDy=0;exitX=1;exitY=0.5;exitDx=0;exitDy=0;" edge="1" parent="1" source="1sM3eSAv-vAnu8K4cq6--21" target="1sM3eSAv-vAnu8K4cq6--29">
          <mxGeometry relative="1" as="geometry">
            <mxPoint x="270" y="280" as="sourcePoint" />
            <mxPoint x="430" y="280" as="targetPoint" />
          </mxGeometry>
        </mxCell>
        <mxCell id="1sM3eSAv-vAnu8K4cq6--33" value="Many" style="edgeLabel;html=1;align=center;verticalAlign=middle;resizable=0;points=[];" vertex="1" connectable="0" parent="1sM3eSAv-vAnu8K4cq6--30">
          <mxGeometry x="-0.1538" y="-4" relative="1" as="geometry">
            <mxPoint as="offset" />
          </mxGeometry>
        </mxCell>
        <mxCell id="1sM3eSAv-vAnu8K4cq6--31" value="anggota&amp;nbsp;&lt;div&gt;perpustakan&lt;/div&gt;" style="whiteSpace=wrap;html=1;align=center;" vertex="1" parent="1">
          <mxGeometry x="600" y="280" width="100" height="40" as="geometry" />
        </mxCell>
        <mxCell id="1sM3eSAv-vAnu8K4cq6--32" value="" style="endArrow=none;html=1;rounded=0;exitX=1;exitY=0.5;exitDx=0;exitDy=0;entryX=0;entryY=0.5;entryDx=0;entryDy=0;" edge="1" parent="1" source="1sM3eSAv-vAnu8K4cq6--29" target="1sM3eSAv-vAnu8K4cq6--31">
          <mxGeometry relative="1" as="geometry">
            <mxPoint x="470" y="350" as="sourcePoint" />
            <mxPoint x="600" y="350" as="targetPoint" />
          </mxGeometry>
        </mxCell>
        <mxCell id="1sM3eSAv-vAnu8K4cq6--34" value="Many" style="edgeLabel;html=1;align=center;verticalAlign=middle;resizable=0;points=[];" vertex="1" connectable="0" parent="1sM3eSAv-vAnu8K4cq6--32">
          <mxGeometry x="0.0783" y="-5" relative="1" as="geometry">
            <mxPoint as="offset" />
          </mxGeometry>
        </mxCell>
        <mxCell id="1sM3eSAv-vAnu8K4cq6--36" value="nama" style="ellipse;whiteSpace=wrap;html=1;align=center;" vertex="1" parent="1">
          <mxGeometry x="470" y="200" width="100" height="40" as="geometry" />
        </mxCell>
        <mxCell id="1sM3eSAv-vAnu8K4cq6--37" value="jurusan" style="ellipse;whiteSpace=wrap;html=1;align=center;" vertex="1" parent="1">
          <mxGeometry x="330" y="150" width="100" height="40" as="geometry" />
        </mxCell>
        <mxCell id="1sM3eSAv-vAnu8K4cq6--38" value="Alamat" style="ellipse;whiteSpace=wrap;html=1;align=center;" vertex="1" parent="1">
          <mxGeometry x="300" y="200" width="100" height="40" as="geometry" />
        </mxCell>
        <mxCell id="1sM3eSAv-vAnu8K4cq6--39" value="nim" style="ellipse;whiteSpace=wrap;html=1;align=center;fontStyle=4;" vertex="1" parent="1">
          <mxGeometry x="450" y="150" width="100" height="40" as="geometry" />
        </mxCell>
        <mxCell id="1sM3eSAv-vAnu8K4cq6--41" value="" style="endArrow=none;html=1;rounded=0;exitX=1;exitY=1;exitDx=0;exitDy=0;entryX=0;entryY=0;entryDx=0;entryDy=0;" edge="1" parent="1" source="1sM3eSAv-vAnu8K4cq6--38" target="1sM3eSAv-vAnu8K4cq6--29">
          <mxGeometry relative="1" as="geometry">
            <mxPoint x="310" y="400" as="sourcePoint" />
            <mxPoint x="390" y="440" as="targetPoint" />
          </mxGeometry>
        </mxCell>
        <mxCell id="1sM3eSAv-vAnu8K4cq6--42" value="" style="endArrow=none;html=1;rounded=0;" edge="1" parent="1" source="1sM3eSAv-vAnu8K4cq6--37" target="1sM3eSAv-vAnu8K4cq6--29">
          <mxGeometry relative="1" as="geometry">
            <mxPoint x="395" y="244" as="sourcePoint" />
            <mxPoint x="430" y="250" as="targetPoint" />
          </mxGeometry>
        </mxCell>
        <mxCell id="1sM3eSAv-vAnu8K4cq6--43" value="" style="endArrow=none;html=1;rounded=0;exitX=0;exitY=1;exitDx=0;exitDy=0;entryX=0.588;entryY=0.071;entryDx=0;entryDy=0;entryPerimeter=0;" edge="1" parent="1" source="1sM3eSAv-vAnu8K4cq6--39" target="1sM3eSAv-vAnu8K4cq6--29">
          <mxGeometry relative="1" as="geometry">
            <mxPoint x="399" y="200" as="sourcePoint" />
            <mxPoint x="440" y="285" as="targetPoint" />
          </mxGeometry>
        </mxCell>
        <mxCell id="1sM3eSAv-vAnu8K4cq6--44" value="" style="endArrow=none;html=1;rounded=0;exitX=0.3;exitY=1.025;exitDx=0;exitDy=0;entryX=1;entryY=0;entryDx=0;entryDy=0;exitPerimeter=0;" edge="1" parent="1" source="1sM3eSAv-vAnu8K4cq6--36" target="1sM3eSAv-vAnu8K4cq6--29">
          <mxGeometry relative="1" as="geometry">
            <mxPoint x="395" y="244" as="sourcePoint" />
            <mxPoint x="431" y="293" as="targetPoint" />
          </mxGeometry>
        </mxCell>
        <mxCell id="1sM3eSAv-vAnu8K4cq6--47" value="nama" style="ellipse;whiteSpace=wrap;html=1;align=center;" vertex="1" parent="1">
          <mxGeometry x="570" y="180" width="70" height="40" as="geometry" />
        </mxCell>
        <mxCell id="1sM3eSAv-vAnu8K4cq6--48" value="nomor_ang&lt;div&gt;gota&amp;nbsp;&lt;/div&gt;" style="ellipse;whiteSpace=wrap;html=1;align=center;fontStyle=4;" vertex="1" parent="1">
          <mxGeometry x="550" y="230" width="70" height="40" as="geometry" />
        </mxCell>
        <mxCell id="1sM3eSAv-vAnu8K4cq6--49" value="jurusan" style="ellipse;whiteSpace=wrap;html=1;align=center;" vertex="1" parent="1">
          <mxGeometry x="660" y="180" width="70" height="40" as="geometry" />
        </mxCell>
        <mxCell id="1sM3eSAv-vAnu8K4cq6--50" value="masa_berlaku" style="ellipse;whiteSpace=wrap;html=1;align=center;" vertex="1" parent="1">
          <mxGeometry x="670" y="230" width="70" height="40" as="geometry" />
        </mxCell>
        <mxCell id="1sM3eSAv-vAnu8K4cq6--51" value="" style="endArrow=none;html=1;rounded=0;exitX=1;exitY=1;exitDx=0;exitDy=0;entryX=0.34;entryY=0;entryDx=0;entryDy=0;entryPerimeter=0;" edge="1" parent="1" source="1sM3eSAv-vAnu8K4cq6--48" target="1sM3eSAv-vAnu8K4cq6--31">
          <mxGeometry relative="1" as="geometry">
            <mxPoint x="540" y="430" as="sourcePoint" />
            <mxPoint x="590" y="460" as="targetPoint" />
          </mxGeometry>
        </mxCell>
        <mxCell id="1sM3eSAv-vAnu8K4cq6--52" value="" style="endArrow=none;html=1;rounded=0;exitX=1;exitY=1;exitDx=0;exitDy=0;entryX=0.41;entryY=-0.025;entryDx=0;entryDy=0;entryPerimeter=0;" edge="1" parent="1" source="1sM3eSAv-vAnu8K4cq6--47" target="1sM3eSAv-vAnu8K4cq6--31">
          <mxGeometry relative="1" as="geometry">
            <mxPoint x="600" y="420" as="sourcePoint" />
            <mxPoint x="640" y="270" as="targetPoint" />
            <Array as="points" />
          </mxGeometry>
        </mxCell>
        <mxCell id="1sM3eSAv-vAnu8K4cq6--53" value="" style="endArrow=none;html=1;rounded=0;exitX=0;exitY=1;exitDx=0;exitDy=0;entryX=0.5;entryY=0;entryDx=0;entryDy=0;" edge="1" parent="1" source="1sM3eSAv-vAnu8K4cq6--49" target="1sM3eSAv-vAnu8K4cq6--31">
          <mxGeometry relative="1" as="geometry">
            <mxPoint x="640" y="224" as="sourcePoint" />
            <mxPoint x="651" y="270" as="targetPoint" />
            <Array as="points" />
          </mxGeometry>
        </mxCell>
        <mxCell id="1sM3eSAv-vAnu8K4cq6--54" value="" style="endArrow=none;html=1;rounded=0;exitX=0;exitY=1;exitDx=0;exitDy=0;entryX=0.59;entryY=0;entryDx=0;entryDy=0;entryPerimeter=0;" edge="1" parent="1" source="1sM3eSAv-vAnu8K4cq6--50" target="1sM3eSAv-vAnu8K4cq6--31">
          <mxGeometry relative="1" as="geometry">
            <mxPoint x="620" y="274" as="sourcePoint" />
            <mxPoint x="644" y="290" as="targetPoint" />
          </mxGeometry>
        </mxCell>
        <mxCell id="1sM3eSAv-vAnu8K4cq6--55" value="meminjam&lt;div&gt;buku&lt;/div&gt;" style="shape=rhombus;perimeter=rhombusPerimeter;whiteSpace=wrap;html=1;align=center;" vertex="1" parent="1">
          <mxGeometry x="595" y="410" width="110" height="60" as="geometry" />
        </mxCell>
        <mxCell id="1sM3eSAv-vAnu8K4cq6--56" value="" style="endArrow=none;html=1;rounded=0;entryX=0.5;entryY=0;entryDx=0;entryDy=0;exitX=0.5;exitY=1;exitDx=0;exitDy=0;" edge="1" parent="1" source="1sM3eSAv-vAnu8K4cq6--31" target="1sM3eSAv-vAnu8K4cq6--55">
          <mxGeometry relative="1" as="geometry">
            <mxPoint x="540" y="360" as="sourcePoint" />
            <mxPoint x="700" y="360" as="targetPoint" />
          </mxGeometry>
        </mxCell>
        <mxCell id="1sM3eSAv-vAnu8K4cq6--62" value="1" style="edgeLabel;html=1;align=center;verticalAlign=middle;resizable=0;points=[];" vertex="1" connectable="0" parent="1sM3eSAv-vAnu8K4cq6--56">
          <mxGeometry x="-0.2444" relative="1" as="geometry">
            <mxPoint as="offset" />
          </mxGeometry>
        </mxCell>
        <mxCell id="1sM3eSAv-vAnu8K4cq6--59" value="Entity" style="whiteSpace=wrap;html=1;align=center;" vertex="1" parent="1">
          <mxGeometry x="605" y="640" width="100" height="40" as="geometry" />
        </mxCell>
        <mxCell id="1sM3eSAv-vAnu8K4cq6--60" value="" style="endArrow=none;html=1;rounded=0;exitX=0.5;exitY=1;exitDx=0;exitDy=0;entryX=0.44;entryY=-0.025;entryDx=0;entryDy=0;entryPerimeter=0;" edge="1" parent="1" source="1sM3eSAv-vAnu8K4cq6--55" target="1sM3eSAv-vAnu8K4cq6--59">
          <mxGeometry relative="1" as="geometry">
            <mxPoint x="520" y="480" as="sourcePoint" />
            <mxPoint x="590" y="530" as="targetPoint" />
          </mxGeometry>
        </mxCell>
        <mxCell id="1sM3eSAv-vAnu8K4cq6--61" value="many" style="edgeLabel;html=1;align=center;verticalAlign=middle;resizable=0;points=[];" vertex="1" connectable="0" parent="1sM3eSAv-vAnu8K4cq6--60">
          <mxGeometry x="0.2802" y="3" relative="1" as="geometry">
            <mxPoint as="offset" />
          </mxGeometry>
        </mxCell>
        <mxCell id="1sM3eSAv-vAnu8K4cq6--63" value="nomor_buku" style="ellipse;whiteSpace=wrap;html=1;align=center;fontStyle=4;" vertex="1" parent="1">
          <mxGeometry x="720" y="400" width="100" height="40" as="geometry" />
        </mxCell>
        <mxCell id="1sM3eSAv-vAnu8K4cq6--64" value="nomor-anggota" style="ellipse;whiteSpace=wrap;html=1;align=center;fontStyle=4;" vertex="1" parent="1">
          <mxGeometry x="700" y="330" width="100" height="40" as="geometry" />
        </mxCell>
        <mxCell id="1sM3eSAv-vAnu8K4cq6--65" value="tanggal_pinjam" style="ellipse;whiteSpace=wrap;html=1;align=center;" vertex="1" parent="1">
          <mxGeometry x="500" y="480" width="100" height="40" as="geometry" />
        </mxCell>
        <mxCell id="1sM3eSAv-vAnu8K4cq6--66" value="tanggal_kembali" style="ellipse;whiteSpace=wrap;html=1;align=center;" vertex="1" parent="1">
          <mxGeometry x="460" y="410" width="100" height="40" as="geometry" />
        </mxCell>
        <mxCell id="1sM3eSAv-vAnu8K4cq6--67" value="kode_pinjaman" style="ellipse;whiteSpace=wrap;html=1;align=center;" vertex="1" parent="1">
          <mxGeometry x="485" y="330" width="100" height="40" as="geometry" />
        </mxCell>
        <mxCell id="1sM3eSAv-vAnu8K4cq6--68" value="denda" style="ellipse;whiteSpace=wrap;html=1;align=center;" vertex="1" parent="1">
          <mxGeometry x="690" y="520" width="100" height="40" as="geometry" />
        </mxCell>
        <mxCell id="1sM3eSAv-vAnu8K4cq6--69" value="judul_buku" style="ellipse;whiteSpace=wrap;html=1;align=center;" vertex="1" parent="1">
          <mxGeometry x="720" y="460" width="100" height="40" as="geometry" />
        </mxCell>
        <mxCell id="1sM3eSAv-vAnu8K4cq6--70" value="" style="endArrow=none;html=1;rounded=0;entryX=1;entryY=0;entryDx=0;entryDy=0;" edge="1" parent="1" source="1sM3eSAv-vAnu8K4cq6--55" target="1sM3eSAv-vAnu8K4cq6--65">
          <mxGeometry relative="1" as="geometry">
            <mxPoint x="390" y="540" as="sourcePoint" />
            <mxPoint x="550" y="540" as="targetPoint" />
          </mxGeometry>
        </mxCell>
        <mxCell id="1sM3eSAv-vAnu8K4cq6--71" value="" style="endArrow=none;html=1;rounded=0;entryX=0;entryY=0.5;entryDx=0;entryDy=0;exitX=1;exitY=0.5;exitDx=0;exitDy=0;" edge="1" parent="1" source="1sM3eSAv-vAnu8K4cq6--66" target="1sM3eSAv-vAnu8K4cq6--55">
          <mxGeometry relative="1" as="geometry">
            <mxPoint x="230" y="480" as="sourcePoint" />
            <mxPoint x="320" y="480" as="targetPoint" />
          </mxGeometry>
        </mxCell>
        <mxCell id="1sM3eSAv-vAnu8K4cq6--72" value="" style="endArrow=none;html=1;rounded=0;entryX=0.94;entryY=0.725;entryDx=0;entryDy=0;entryPerimeter=0;" edge="1" parent="1" source="1sM3eSAv-vAnu8K4cq6--55" target="1sM3eSAv-vAnu8K4cq6--67">
          <mxGeometry relative="1" as="geometry">
            <mxPoint x="390" y="540" as="sourcePoint" />
            <mxPoint x="480" y="540" as="targetPoint" />
          </mxGeometry>
        </mxCell>
        <mxCell id="1sM3eSAv-vAnu8K4cq6--73" value="" style="endArrow=none;html=1;rounded=0;entryX=0;entryY=1;entryDx=0;entryDy=0;" edge="1" parent="1" source="1sM3eSAv-vAnu8K4cq6--55" target="1sM3eSAv-vAnu8K4cq6--64">
          <mxGeometry relative="1" as="geometry">
            <mxPoint x="250" y="530" as="sourcePoint" />
            <mxPoint x="410" y="530" as="targetPoint" />
          </mxGeometry>
        </mxCell>
        <mxCell id="1sM3eSAv-vAnu8K4cq6--74" value="" style="endArrow=none;html=1;rounded=0;entryX=0.03;entryY=0.675;entryDx=0;entryDy=0;entryPerimeter=0;exitX=1;exitY=0.5;exitDx=0;exitDy=0;" edge="1" parent="1" source="1sM3eSAv-vAnu8K4cq6--55" target="1sM3eSAv-vAnu8K4cq6--63">
          <mxGeometry relative="1" as="geometry">
            <mxPoint x="360" y="570" as="sourcePoint" />
            <mxPoint x="520" y="570" as="targetPoint" />
          </mxGeometry>
        </mxCell>
        <mxCell id="1sM3eSAv-vAnu8K4cq6--75" value="" style="endArrow=none;html=1;rounded=0;entryX=0;entryY=0.5;entryDx=0;entryDy=0;" edge="1" parent="1" source="1sM3eSAv-vAnu8K4cq6--55" target="1sM3eSAv-vAnu8K4cq6--69">
          <mxGeometry relative="1" as="geometry">
            <mxPoint x="480" y="550" as="sourcePoint" />
            <mxPoint x="640" y="550" as="targetPoint" />
          </mxGeometry>
        </mxCell>
        <mxCell id="1sM3eSAv-vAnu8K4cq6--76" value="" style="endArrow=none;html=1;rounded=0;exitX=0.609;exitY=0.883;exitDx=0;exitDy=0;exitPerimeter=0;" edge="1" parent="1" source="1sM3eSAv-vAnu8K4cq6--55">
          <mxGeometry relative="1" as="geometry">
            <mxPoint x="540" y="530" as="sourcePoint" />
            <mxPoint x="700" y="530" as="targetPoint" />
          </mxGeometry>
        </mxCell>
        <mxCell id="1sM3eSAv-vAnu8K4cq6--77" value="penerbit" style="ellipse;whiteSpace=wrap;html=1;align=center;" vertex="1" parent="1">
          <mxGeometry x="700" y="720" width="100" height="40" as="geometry" />
        </mxCell>
        <mxCell id="1sM3eSAv-vAnu8K4cq6--78" value="judul-buku" style="ellipse;whiteSpace=wrap;html=1;align=center;" vertex="1" parent="1">
          <mxGeometry x="470" y="600" width="100" height="40" as="geometry" />
        </mxCell>
        <mxCell id="1sM3eSAv-vAnu8K4cq6--79" value="tahun_terbit" style="ellipse;whiteSpace=wrap;html=1;align=center;" vertex="1" parent="1">
          <mxGeometry x="535" y="720" width="100" height="40" as="geometry" />
        </mxCell>
        <mxCell id="1sM3eSAv-vAnu8K4cq6--80" value="pengarang" style="ellipse;whiteSpace=wrap;html=1;align=center;" vertex="1" parent="1">
          <mxGeometry x="730" y="600" width="100" height="40" as="geometry" />
        </mxCell>
        <mxCell id="1sM3eSAv-vAnu8K4cq6--81" value="jenis_buku" style="ellipse;whiteSpace=wrap;html=1;align=center;" vertex="1" parent="1">
          <mxGeometry x="730" y="660" width="100" height="40" as="geometry" />
        </mxCell>
        <mxCell id="1sM3eSAv-vAnu8K4cq6--82" value="nomor_buku" style="ellipse;whiteSpace=wrap;html=1;align=center;fontStyle=4;" vertex="1" parent="1">
          <mxGeometry x="450" y="660" width="100" height="40" as="geometry" />
        </mxCell>
        <mxCell id="1sM3eSAv-vAnu8K4cq6--84" value="" style="endArrow=none;html=1;rounded=0;entryX=0;entryY=0.5;entryDx=0;entryDy=0;exitX=1;exitY=0;exitDx=0;exitDy=0;" edge="1" parent="1" source="1sM3eSAv-vAnu8K4cq6--59" target="1sM3eSAv-vAnu8K4cq6--80">
          <mxGeometry relative="1" as="geometry">
            <mxPoint x="710" y="640" as="sourcePoint" />
            <mxPoint x="440" y="530" as="targetPoint" />
          </mxGeometry>
        </mxCell>
        <mxCell id="1sM3eSAv-vAnu8K4cq6--85" value="" style="endArrow=none;html=1;rounded=0;entryX=0.29;entryY=0.125;entryDx=0;entryDy=0;entryPerimeter=0;exitX=1;exitY=0.25;exitDx=0;exitDy=0;" edge="1" parent="1" source="1sM3eSAv-vAnu8K4cq6--59" target="1sM3eSAv-vAnu8K4cq6--81">
          <mxGeometry relative="1" as="geometry">
            <mxPoint x="70" y="540" as="sourcePoint" />
            <mxPoint x="230" y="540" as="targetPoint" />
          </mxGeometry>
        </mxCell>
        <mxCell id="1sM3eSAv-vAnu8K4cq6--86" value="" style="endArrow=none;html=1;rounded=0;entryX=0;entryY=0;entryDx=0;entryDy=0;exitX=0.75;exitY=1;exitDx=0;exitDy=0;" edge="1" parent="1" source="1sM3eSAv-vAnu8K4cq6--59" target="1sM3eSAv-vAnu8K4cq6--77">
          <mxGeometry relative="1" as="geometry">
            <mxPoint x="130" y="620" as="sourcePoint" />
            <mxPoint x="290" y="620" as="targetPoint" />
          </mxGeometry>
        </mxCell>
        <mxCell id="1sM3eSAv-vAnu8K4cq6--87" value="" style="endArrow=none;html=1;rounded=0;entryX=1;entryY=0;entryDx=0;entryDy=0;exitX=0.37;exitY=1.025;exitDx=0;exitDy=0;exitPerimeter=0;" edge="1" parent="1" source="1sM3eSAv-vAnu8K4cq6--59" target="1sM3eSAv-vAnu8K4cq6--79">
          <mxGeometry relative="1" as="geometry">
            <mxPoint x="130" y="690" as="sourcePoint" />
            <mxPoint x="290" y="690" as="targetPoint" />
          </mxGeometry>
        </mxCell>
        <mxCell id="1sM3eSAv-vAnu8K4cq6--88" value="" style="endArrow=none;html=1;rounded=0;entryX=0;entryY=0.75;entryDx=0;entryDy=0;exitX=1;exitY=1;exitDx=0;exitDy=0;" edge="1" parent="1" source="1sM3eSAv-vAnu8K4cq6--78" target="1sM3eSAv-vAnu8K4cq6--59">
          <mxGeometry relative="1" as="geometry">
            <mxPoint x="550" y="650" as="sourcePoint" />
            <mxPoint x="390" y="590" as="targetPoint" />
          </mxGeometry>
        </mxCell>
        <mxCell id="1sM3eSAv-vAnu8K4cq6--89" value="" style="endArrow=none;html=1;rounded=0;entryX=0;entryY=1;entryDx=0;entryDy=0;exitX=1;exitY=0.5;exitDx=0;exitDy=0;" edge="1" parent="1" source="1sM3eSAv-vAnu8K4cq6--82" target="1sM3eSAv-vAnu8K4cq6--59">
          <mxGeometry relative="1" as="geometry">
            <mxPoint x="250" y="660" as="sourcePoint" />
            <mxPoint x="410" y="660" as="targetPoint" />
          </mxGeometry>
        </mxCell>
      </root>
    </mxGraphModel>
  </diagram>
</mxfile>
